#!OML:ASF H:\Terrain\Patient Classification 1\Terrain2\Thursday\justin.ASF
:FULLY-SPECIFIED
:DEGREES
1460
root -13.0438 17.4625 18.0232 -2.27654 20.5568 -362.432
lowerback 6.14453 -0.181497 -1.88581
upperback 2.27545 -0.312901 1.8023
thorax -1.07965 -0.163408 2.9371
lowerneck -13.647 -0.235544 -7.75688
upperneck 37.6806 1.56127 2.28387
head 15.4792 -0.027484 2.64761
rclavicle -4.62796e-014 1.13307e-014
rhumerus -29.959 -4.24706 -85.8357
rradius 31.13
rwrist -10.9003
rhand -21.87 9.60356
rfingers 7.12502
rthumb 4.53433 -20.3279
lclavicle -4.62796e-014 1.13307e-014
lhumerus -28.8226 5.9089 82.6584
lradius 32.7909
lwrist 9.89327
lhand -21.9963 22.3299
lfingers 7.12502
lthumb 4.41237 52.264
rfemur -20.3939 8.43545 17.6449
rtibia 36.6015
rfoot -11.035 16.8597
rtoes 23.4621
lfemur -12.7278 -1.38068 -17.5178
ltibia 28.2294
lfoot -8.81858 -30.1963
ltoes 12.6154
1461
root -13.0669 17.4869 18.085 -2.16546 21.912 -361.939
lowerback 6.11861 -0.304091 -2.29654
upperback 2.33861 -0.501504 1.64794
thorax -0.985185 -0.260555 3.02161
lowerneck -13.6798 -0.161342 -7.7922
upperneck 37.5449 1.79931 2.02679
head 15.4109 0.0416394 2.5803
rclavicle -8.79001e-015 1.88845e-015
rhumerus -29.8027 -3.78556 -86.005
rradius 31.0823
rwrist -10.9648
rhand -21.8273 9.68679
rfingers 7.12502
rthumb 4.57557 -20.2438
lclavicle -8.79001e-015 1.88845e-015
lhumerus -28.8072 5.85713 82.7585
lradius 32.6517
lwrist 10.1662
lhand -22.5341 21.4844
lfingers 7.12502
lthumb 3.89304 51.4286
rfemur -19.7261 8.5708 17.164
rtibia 36.583
rfoot -12.0138 14.6123
rtoes 21.2607
lfemur -12.5124 -1.84523 -17.935
ltibia 28.2794
lfoot -9.126 -30.7883
ltoes 10.1659
1462
root -13.0933 17.5074 18.1524 -1.9711 23.3923 -361.204
lowerback 6.17147 -0.422498 -3.0255
upperback 2.35129 -0.704799 1.46493
thorax -0.979463 -0.364536 3.25804
lowerneck -13.885 -0.137806 -7.95421
upperneck 37.8425 1.89817 2.13589
head 15.5996 0.070595 2.68597
rclavicle 7.9576e-015 -1.2921e-015
rhumerus -29.8384 -3.31245 -86.2119
rradius 31.1113
rwrist -11.2606
rhand -21.7525 10.1865
rfingers 7.12502
rthumb 4.64772 -19.7425
lclavicle 7.9576e-015 -1.2921e-015
lhumerus -28.971 5.76536 82.8249
lradius 32.709
lwrist 10.1198
lhand -22.7475 21.6216
lfingers 7.12502
lthumb 3.68694 51.5695
rfemur -19.0838 7.69421 16.5392
rtibia 36.4976
rfoot -12.8092 13.468
rtoes 19.3641
lfemur -12.1835 -2.38444 -18.5714
ltibia 28.3565
lfoot -10.9891 -31.1296
ltoes 3.74824
1463
root -13.1213 17.5058 18.2244 -2.02509 24.6661 -360.958
lowerback 6.31304 -0.384405 -3.23964
upperback 2.36134 -0.670628 1.40964
thorax -1.0482 -0.34655 3.32119
lowerneck -13.9406 -0.230738 -8.46753
upperneck 38.0335 1.82111 2.49323
head 15.7066 0.0150027 2.92774
rclavicle -7.9079e-014 9.14409e-015
rhumerus -30.1121 -3.24535 -86.2324
rradius 31.3487
rwrist -11.113
rhand -21.7627 10.3529
rfingers 7.12502
rthumb 4.63786 -19.5763
lclavicle -7.9079e-014 9.14409e-015
lhumerus -29.0395 5.25904 83.0589
lradius 32.8253
lwrist 10.1385
lhand -22.6813 21.9584
lfingers 7.12502
lthumb 3.75085 51.9051
rfemur -18.2551 7.11547 16.6533
rtibia 36.2562
rfoot -13.9178 12.3234
rtoes 16.6365
lfemur -11.8894 -2.63353 -18.6875
ltibia 28.3346
lfoot -11.3782 -31.8664
ltoes 2.14482
1464
root -13.1437 17.4933 18.3013 -2.14643 25.6731 -361.085
lowerback 6.26414 -0.324857 -3.10175
upperback 2.38069 -0.580623 1.43391
thorax -1.00983 -0.301861 3.2615
lowerneck -13.8284 -0.280897 -8.85791
upperneck 37.9559 1.78197 2.73191
head 15.638 -0.0143664 3.09065
rclavicle -3.22528e-014 4.77083e-015
rhumerus -30.3203 -3.12592 -86.2733
rradius 31.5543
rwrist -10.7396
rhand -21.5746 9.94586
rfingers 7.12502
rthumb 4.81956 -19.9793
lclavicle -3.22528e-014 4.77083e-015
lhumerus -28.9953 5.02515 83.1687
lradius 32.715
lwrist 9.84296
lhand -22.1418 21.9861
lfingers 7.12502
lthumb 4.27186 51.923
rfemur -17.5492 6.33013 17.1652
rtibia 35.9613
rfoot -14.7659 11.6626
rtoes 13.9054
lfemur -11.7486 -2.77531 -18.407
ltibia 28.3343
lfoot -9.74537 -32.6048
ltoes 4.15897
1465
root -13.1569 17.4901 18.3807 -2.08964 26.7445 -360.937
lowerback 6.07566 -0.348247 -3.24452
upperback 2.43234 -0.614141 1.40941
thorax -0.847519 -0.322852 3.31638
lowerneck -13.836 -0.23021 -8.59926
upperneck 37.9237 1.94083 2.35652
head 15.6226 0.0445271 2.90952
rclavicle 5.67779e-015 4.07509e-015
rhumerus -30.398 -2.66515 -86.4642
rradius 31.6777
rwrist -10.927
rhand -21.442 9.60244
rfingers 7.12502
rthumb 4.94756 -20.3198
lclavicle 5.67779e-015 4.07509e-015
lhumerus -28.92 5.19215 83.1932
lradius 32.5293
lwrist 9.3744
lhand -21.6918 21.8831
lfingers 7.12502
lthumb 4.70636 51.8108
rfemur -17.1289 5.59434 17.2773
rtibia 35.7939
rfoot -15.376 10.7976
rtoes 12.513
lfemur -11.4736 -2.99556 -18.457
ltibia 28.1118
lfoot -8.86234 -33.1593
ltoes 3.96514
1466
root -13.1694 17.4794 18.4605 -2.07436 28.0053 -360.961
lowerback 5.84872 -0.367772 -3.19562
upperback 2.48759 -0.629181 1.45467
thorax -0.663197 -0.334441 3.33343
lowerneck -14.0648 -0.259606 -8.38831
upperneck 38.1308 2.06169 1.91305
head 15.7894 0.0623163 2.71346
rclavicle -6.1996e-015 -4.27387e-015
rhumerus -30.5385 -2.07095 -86.6193
rradius 31.9244
rwrist -11.5418
rhand -21.7795 9.55418
rfingers 7.12502
rthumb 4.62167 -20.3754
lclavicle -6.1996e-015 -4.27387e-015
lhumerus -28.8877 5.26649 83.3649
lradius 32.3567
lwrist 9.11074
lhand -21.7291 21.4043
lfingers 7.12502
lthumb 4.67036 51.3328
rfemur -17.005 4.53458 17.6432
rtibia 35.6058
rfoot -15.8731 9.27521
rtoes 7.42487
lfemur -11.4175 -3.36875 -18.3297
ltibia 28.0109
lfoot -7.28438 -34.2066
ltoes 7.63891
1467
root -13.196 17.4644 18.5362 -2.14285 29.1887 -361.301
lowerback 5.75226 -0.323263 -2.89665
upperback 2.34303 -0.551067 1.56039
thorax -0.767302 -0.290175 3.26906
lowerneck -13.8938 -0.324415 -8.63192
upperneck 38.2876 2.04702 1.9479
head 15.8301 0.0307137 2.77405
rclavicle 2.02512e-015 9.34288e-015
rhumerus -31.0189 -1.55716 -86.7232
rradius 32.212
rwrist -12.056
rhand -22.1843 10.045
rfingers 7.12502
rthumb 4.23076 -19.8927
lclavicle 2.02512e-015 9.34288e-015
lhumerus -29.2522 5.02232 83.5229
lradius 32.4437
lwrist 8.90119
lhand -21.1881 21.1183
lfingers 7.12502
lthumb 5.19275 51.0347
rfemur -16.2697 5.23963 17.9428
rtibia 35.5737
rfoot -15.9883 8.20783
rtoes 12.9165
lfemur -11.7255 -3.60891 -17.8553
ltibia 27.8578
lfoot 1.11802 -35.2393
ltoes 26.3772
1468
root -13.219 17.4872 18.6044 -2.33058 30.2749 -361.807
lowerback 5.75082 -0.258162 -2.33268
upperback 2.15512 -0.433653 1.63065
thorax -0.974006 -0.223472 3.01702
lowerneck -13.5017 -0.349143 -8.79638
upperneck 38.3385 2.00212 2.07216
head 15.7617 0.0161719 2.84757
rclavicle 7.14755e-014 2.5842e-015
rhumerus -31.5002 -1.44679 -86.7796
rradius 32.3394
rwrist -12.2172
rhand -22.1027 10.409
rfingers 7.12502
rthumb 4.30957 -19.5271
lclavicle 7.14755e-014 2.5842e-015
lhumerus -29.6888 4.59337 83.6812
lradius 32.6741
lwrist 8.71644
lhand -20.5772 21.6978
lfingers 7.12502
lthumb 5.78253 51.5989
rfemur -15.6949 5.25411 18.5393
rtibia 35.3611
rfoot -16.1009 7.54405
rtoes 15.228
lfemur -11.7837 -3.50503 -17.2822
ltibia 27.9796
lfoot -5.18122 -35.6913
ltoes 9.71837
1469
root -13.2354 17.487 18.6682 -2.65108 31.4094 -362.375
lowerback 5.6233 -0.208019 -1.66837
upperback 2.25221 -0.326869 1.72739
thorax -0.814774 -0.170425 2.73387
lowerneck -13.7305 -0.370301 -8.72927
upperneck 38.4918 2.02888 2.02065
head 15.8961 0.0307914 2.82907
rclavicle -5.45664e-014 -1.98785e-016
rhumerus -31.4724 -1.5209 -86.7411
rradius 32.3515
rwrist -12.1604
rhand -22.0449 9.71288
rfingers 7.12502
rthumb 4.36544 -20.2221
lclavicle -5.45664e-014 -1.98785e-016
lhumerus -29.643 4.25021 83.9653
lradius 32.7165
lwrist 8.58079
lhand -20.6354 22.4033
lfingers 7.12502
lthumb 5.72634 52.306
rfemur -15.1736 4.45059 19.2408
rtibia 35.1402
rfoot -16.358 7.05292
rtoes 14.8585
lfemur -11.9187 -3.56932 -16.6627
ltibia 28.3104
lfoot -8.74883 -35.9333
ltoes -1.09472
1470
root -13.2532 17.4922 18.7292 -2.71788 32.55 -362.709
lowerback 5.3331 -0.214433 -1.34847
upperback 2.3678 -0.315294 1.82432
thorax -0.536642 -0.16707 2.65024
lowerneck -14.0218 -0.288843 -8.5266
upperneck 38.4495 2.22624 1.79458
head 15.938 0.116838 2.7329
rclavicle -1.56543e-015 3.18055e-015
rhumerus -31.3188 -1.62168 -86.6329
rradius 32.4465
rwrist -12.0413
rhand -21.704 8.71284
rfingers 7.12502
rthumb 4.69456 -21.2151
lclavicle -1.56543e-015 3.18055e-015
lhumerus -29.6218 4.19922 84.1469
lradius 32.8611
lwrist 8.78337
lhand -20.5845 22.2212
lfingers 7.12502
lthumb 5.77551 52.1225
rfemur -14.6967 3.49881 19.6941
rtibia 34.6577
rfoot -16.5152 6.42458
rtoes 13.3198
lfemur -12.3535 -3.97025 -16.2244
ltibia 29.0132
lfoot -9.12483 -36.0996
ltoes -1.99329
1471
root -13.2679 17.5003 18.7883 -2.92274 33.6425 -363.236
lowerback 5.26467 -0.201696 -0.834324
upperback 2.32757 -0.270548 1.96182
thorax -0.544685 -0.141235 2.49947
lowerneck -13.9405 -0.227766 -8.35251
upperneck 38.2424 2.37396 1.51197
head 15.8117 0.179716 2.59818
rclavicle 3.45761e-014 -1.20265e-014
rhumerus -31.4345 -1.6546 -86.4747
rradius 32.5349
rwrist -11.8302
rhand -21.3376 9.06034
rfingers 7.12502
rthumb 5.04841 -20.8595
lclavicle 3.45761e-014 -1.20265e-014
lhumerus -30.0201 4.1208 84.2453
lradius 33.2736
lwrist 8.95795
lhand -20.1714 21.9098
lfingers 7.12502
lthumb 6.17437 51.7998
rfemur -14.2482 2.97037 20.2238
rtibia 34.1692
rfoot -16.4853 5.93593
rtoes 13.3626
lfemur -12.7171 -4.421 -15.6773
ltibia 29.7273
lfoot -9.52834 -35.8093
ltoes -1.96827
1472
root -13.285 17.5047 18.8502 -3.67611 34.6677 -364.393
lowerback 5.41504 -0.0976192 0.249913
upperback 2.30758 -0.0712895 2.22916
thorax -0.660459 -0.0342559 2.15394
lowerneck -13.838 -0.336338 -8.48448
upperneck 38.0868 2.26087 1.49528
head 15.7175 0.125254 2.59149
rclavicle -9.0944e-014 -1.78906e-014
rhumerus -31.6495 -1.1901 -86.4504
rradius 32.4673
rwrist -11.6899
rhand -21.5733 9.75115
rfingers 7.12502
rthumb 4.82077 -20.174
lclavicle -9.0944e-014 -1.78906e-014
lhumerus -30.1729 3.84953 84.4821
lradius 33.2829
lwrist 8.524
lhand -19.8982 22.2336
lfingers 7.12502
lthumb 6.43806 52.1158
rfemur -13.6381 2.55209 21.311
rtibia 33.6396
rfoot -16.5567 5.5355
rtoes 12.566
lfemur -12.9369 -4.6038 -14.6188
ltibia 30.4643
lfoot -11.087 -35.3511
ltoes -4.99253
1473
root -13.3025 17.5105 18.9085 -4.49659 35.6988 -365.561
lowerback 5.55658 -0.0425533 1.25226
upperback 2.30432 0.0632055 2.49946
thorax -0.746619 0.0390034 1.86126
lowerneck -13.6966 -0.406634 -8.7265
upperneck 37.8982 2.13059 1.73385
head 15.59 0.0838156 2.70945
rclavicle 9.8796e-014 -4.41302e-014
rhumerus -31.8699 -0.553176 -86.5072
rradius 32.3988
rwrist -11.5726
rhand -21.8273 9.87136
rfingers 7.12502
rthumb 4.57552 -20.0592
lclavicle 9.8796e-014 -4.41302e-014
lhumerus -30.1936 3.78142 84.7102
lradius 33.0699
lwrist 8.10772
lhand -19.6731 21.7768
lfingers 7.12502
lthumb 6.65544 51.6522
rfemur -13.0447 1.60148 22.3888
rtibia 33.1384
rfoot -16.6452 5.44874
rtoes 11.6818
lfemur -13.1893 -4.88428 -13.6004
ltibia 31.1599
lfoot -11.7262 -34.7535
ltoes -6.92147
